HIERARCHY
ROOT Hips
{
	OFFSET 0.00000 0.00000 0.00000
	CHANNELS 6 Xposition Yposition Zposition Zrotation Yrotation Xrotation 
	JOINT LHipJoint
	{
		OFFSET 0 0 0
		CHANNELS 3 Zrotation Yrotation Xrotation
		JOINT LeftUpLeg
		{
			OFFSET 2.36090 -1.39315 1.24752
			CHANNELS 3 Zrotation Yrotation Xrotation
			JOINT LeftLeg
			{
				OFFSET 2.06810 -5.68207 0.00000
				CHANNELS 3 Zrotation Yrotation Xrotation
				JOINT LeftFoot
				{
					OFFSET 2.46631 -6.77613 0.00000
					CHANNELS 3 Zrotation Yrotation Xrotation
					JOINT LeftToeBase
					{
						OFFSET 0.26031 -0.71520 1.99545
						CHANNELS 3 Zrotation Yrotation Xrotation
						End Site
						{
							OFFSET 0.00000 -0.00000 1.05957
						}
					}
				}
			}
		}
	}
	JOINT RHipJoint
	{
		OFFSET 0 0 0
		CHANNELS 3 Zrotation Yrotation Xrotation
		JOINT RightUpLeg
		{
			OFFSET -2.25243 -1.39315 1.24752
			CHANNELS 3 Zrotation Yrotation Xrotation
			JOINT RightLeg
			{
				OFFSET -2.17343 -5.97145 0.00000
				CHANNELS 3 Zrotation Yrotation Xrotation
				JOINT RightFoot
				{
					OFFSET -2.52372 -6.93386 0.00000
					CHANNELS 3 Zrotation Yrotation Xrotation
					JOINT RightToeBase
					{
						OFFSET -0.22538 -0.61923 2.11447
						CHANNELS 3 Zrotation Yrotation Xrotation
						End Site
						{
							OFFSET -0.00000 -0.00000 1.10506
						}
					}
				}
			}
		}
	}
	JOINT LowerBack
	{
		OFFSET 0 0 0
		CHANNELS 3 Zrotation Yrotation Xrotation
		JOINT Spine
		{
			OFFSET 0.01594 2.13103 0.08007
			CHANNELS 3 Zrotation Yrotation Xrotation
			JOINT Spine1
			{
				OFFSET 0.01393 2.09723 0.18338
				CHANNELS 3 Zrotation Yrotation Xrotation
				JOINT Neck
				{
					OFFSET 0 0 0
					CHANNELS 3 Zrotation Yrotation Xrotation
					JOINT Neck1
					{
						OFFSET 0.05351 1.38915 0.32494
						CHANNELS 3 Zrotation Yrotation Xrotation
						JOINT Head
						{
							OFFSET 0.00711 1.45992 -0.21666
							CHANNELS 3 Zrotation Yrotation Xrotation
							End Site
							{
								OFFSET -0.00433 1.47702 -0.11056
							}
						}
					}
				}
				JOINT LeftShoulder
				{
					OFFSET 0 0 0
					CHANNELS 3 Zrotation Yrotation Xrotation
					JOINT LeftArm
					{
						OFFSET 2.87198 0.92249 0.11132
						CHANNELS 3 Zrotation Yrotation Xrotation
						JOINT LeftForeArm
						{
							OFFSET 5.52731 -0.00000 0.00000
							CHANNELS 3 Zrotation Yrotation Xrotation
							JOINT LeftHand
							{
								OFFSET 3.11059 -0.00000 0.00000
								CHANNELS 3 Zrotation Yrotation Xrotation
								JOINT LeftFingerBase
								{
									OFFSET 0 0 0
									CHANNELS 3 Zrotation Yrotation Xrotation
									JOINT LeftHandIndex1
									{
										OFFSET 0.41963 -0.00000 0.00000
										CHANNELS 3 Zrotation Yrotation Xrotation
										End Site
										{
											OFFSET 0.33831 -0.00000 0.00000
										}
									}
								}
								JOINT LThumb
								{
									OFFSET 0 0 0
									CHANNELS 3 Zrotation Yrotation Xrotation
									End Site
									{
										OFFSET 0.34348 -0.00000 0.34348
									}
								}
							}
						}
					}
				}
				JOINT RightShoulder
				{
					OFFSET 0 0 0
					CHANNELS 3 Zrotation Yrotation Xrotation
					JOINT RightArm
					{
						OFFSET -2.94710 0.68072 0.32187
						CHANNELS 3 Zrotation Yrotation Xrotation
						JOINT RightForeArm
						{
							OFFSET -5.25396 -0.00000 -0.00000
							CHANNELS 3 Zrotation Yrotation Xrotation
							JOINT RightHand
							{
								OFFSET -3.10567 -0.00000 0.00000
								CHANNELS 3 Zrotation Yrotation Xrotation
								JOINT RightFingerBase
								{
									OFFSET 0 0 0
									CHANNELS 3 Zrotation Yrotation Xrotation
									JOINT RightHandIndex1
									{
										OFFSET -0.49868 -0.00000 0.00000
										CHANNELS 3 Zrotation Yrotation Xrotation
										End Site
										{
											OFFSET -0.40204 -0.00000 0.00000
										}
									}
								}
								JOINT RThumb
								{
									OFFSET 0 0 0
									CHANNELS 3 Zrotation Yrotation Xrotation
									End Site
									{
										OFFSET -0.40818 -0.00000 0.40818
									}
								}
							}
						}
					}
				}
			}
		}
	}
}
MOTION
Frames: 12
Frame Time: .0083333
1.7639 2.5697 16.2134 0 0 0 0 0 0 -21 0 0 0 0 0 0 0 0 0 0 0 0 0 0 21 0 0 0 0 0 0 0 0 0 0 0 0 0 0 0 0 0 0 0 0 0 0 -16 0 0 21 0 0 11 0 0 0 -8 0 0 0 0 0 0 0 0 0 0 0 0 0 0 0 0 0 0 0 0 8 0 0 0 0 0 0 0 0 0 0 0 0 0 0 0 0 0
1.7639 2.5697 16.2134 112.9270 -3.6599 -72.2611 0.0000 0.0000 0.0000 -29.1055 -9.0624 -59.5010 14.2680 19.1933 73.0212 0.5212 1.5179 13.1983 0.0601 1.5815 4.3503 0.0000 0.0000 0.0000 18.1817 26.7692 -69.3925 -35.4125 -12.9036 140.9914 -0.1929 -7.3666 -14.0285 -0.3193 -3.6322 10.0443 -1.0446 -0.2529 -3.4579 1.0043 -0.4843 -7.1230 1.6415 -0.2483 -5.4219 17.6322 9.2258 -14.8467 -24.6281 15.0762 21.7257 -10.2569 5.8434 13.3528 0.0000 0.0000 0.0000 -106.3137 -35.4063 72.9185 143.9884 -45.5211 -104.4692 -0.0000 0.0000 -27.1233 51.6943 -16.4746 -19.7489 -7.1250 0.0000 -0.0000 15.0451 5.1974 -14.1271 0.0000 0.0000 0.0000 -130.2491 39.8830 -174.5757 -152.5586 38.5969 -110.2268 0.0000 -0.0000 -37.7712 -7.4209 -18.5732 2.3756 7.1250 -0.0000 -0.0000 19.8203 -47.6677 -1.3551
1.7610 2.5686 16.2115 112.9740 -3.6325 -72.2630 0.0000 0.0000 0.0000 -29.1744 -9.0034 -59.5098 14.2454 19.1868 72.9525 0.5235 1.7847 13.1693 0.0394 1.2814 3.5234 0.0000 0.0000 0.0000 18.1764 26.7516 -69.3772 -35.4101 -12.9065 140.9805 -0.1957 -7.3759 -14.0821 -0.3299 -3.6916 10.2107 -1.1639 -0.3206 -3.4168 1.0472 -0.5724 -7.1399 1.7546 -0.2838 -5.4592 17.9119 9.4034 -14.7784 -24.8794 15.3826 21.7878 -10.3768 5.9926 13.5164 0.0000 0.0000 0.0000 -107.2916 -36.2266 72.9269 144.0769 -45.4601 -104.5324 -0.0000 0.0000 -27.0537 50.1100 -15.0854 -17.2954 -7.1250 0.0000 -0.0000 14.4583 7.7611 -12.7987 0.0000 0.0000 0.0000 -130.2771 38.9515 -174.8178 -152.7749 38.3930 -110.3614 0.0000 -0.0000 -37.6219 -6.9738 -19.2106 2.3048 7.1250 -0.0000 -0.0000 20.4975 -48.2055 -1.6871
1.7574 2.5672 16.2104 113.0420 -3.6014 -72.2627 0.0000 0.0000 0.0000 -29.2490 -8.9318 -59.5127 14.2220 19.1800 72.8814 0.5235 2.0393 13.1178 0.0249 1.0193 2.8019 0.0000 0.0000 0.0000 18.1671 26.7699 -69.3612 -35.4099 -12.9068 140.9795 -0.2000 -7.3760 -14.1471 -0.3409 -3.7518 10.3793 -1.2592 -0.3479 -3.3896 1.0682 -0.6073 -7.1292 1.8304 -0.2949 -5.4614 18.1133 9.5755 -14.9563 -24.9072 15.5985 21.8205 -10.3839 6.0977 13.6579 -0.0000 -0.0000 0.0000 -108.3073 -37.0269 73.1803 144.1663 -45.3984 -104.5960 -0.0000 0.0000 -26.6001 49.0309 -13.7199 -15.2769 -7.1250 0.0000 -0.0000 14.1354 10.0324 -11.8324 -0.0000 -0.0000 0.0000 -130.3694 38.8571 -174.9493 -152.7936 38.3753 -110.3730 0.0000 -0.0000 -37.5843 -6.3636 -18.8929 2.0681 7.1250 -0.0000 -0.0000 20.9150 -47.8237 -1.5199
1.7537 2.5662 16.2090 113.1200 -3.5574 -72.2293 0.0000 0.0000 0.0000 -29.3307 -8.8764 -59.5528 14.1993 19.1734 72.8122 0.5230 2.3228 13.0607 0.0154 0.8008 2.2010 0.0000 0.0000 0.0000 18.1097 26.7792 -69.3852 -35.4192 -12.8956 141.0210 -0.2033 -7.3781 -14.1992 -0.3525 -3.8147 10.5560 -1.3757 -0.3324 -3.4283 1.0170 -0.5916 -7.1759 1.8426 -0.2835 -5.4896 18.2470 9.5619 -14.8213 -24.5810 15.4497 21.7271 -10.2722 6.0872 13.5093 -0.0000 -0.0000 0.0000 -109.2561 -37.6324 73.4812 144.2422 -45.3457 -104.6501 -0.0000 0.0000 -26.4663 47.9599 -13.1260 -14.1364 -7.1250 0.0000 -0.0000 13.6132 11.1864 -11.0378 -0.0000 -0.0000 0.0000 -130.2049 39.0409 -175.0385 -152.8034 38.3661 -110.3791 0.0000 -0.0000 -37.6974 -5.8096 -18.4956 1.8487 7.1250 -0.0000 -0.0000 21.2451 -47.3779 -1.3029
1.7500 2.5651 16.2069 113.1910 -3.5302 -72.2123 0.0000 0.0000 0.0000 -29.3986 -8.8076 -59.5834 14.1784 19.1673 72.7485 0.5215 2.5923 12.9989 0.0074 0.5541 1.5226 0.0000 0.0000 0.0000 18.0805 26.7771 -69.3792 -35.4245 -12.8892 141.0448 -0.2069 -7.3751 -14.2516 -0.3640 -3.8756 10.7270 -1.4681 -0.3412 -3.4323 1.0005 -0.6054 -7.2010 1.8777 -0.2862 -5.5133 18.5189 9.6334 -14.7371 -24.6235 15.5027 21.6385 -10.3252 6.1433 13.5023 -0.0000 0.0000 0.0000 -110.2192 -38.2882 73.7494 144.3262 -45.2873 -104.7098 -0.0000 0.0000 -26.1082 46.8607 -12.2292 -12.7376 -7.1250 0.0000 -0.0000 13.1255 12.7248 -10.1891 -0.0000 0.0000 0.0000 -130.1524 38.9983 -175.1677 -152.8391 38.3322 -110.4013 0.0000 -0.0000 -37.7273 -5.2356 -18.2819 1.6465 7.1250 -0.0000 -0.0000 21.6699 -47.1030 -1.1780
1.7460 2.5641 16.2044 113.2660 -3.5102 -72.1931 0.0000 0.0000 0.0000 -29.4603 -8.7344 -59.6227 14.1596 19.1617 72.6913 0.5184 2.8598 12.9212 0.0023 0.3113 0.8553 0.0000 0.0000 0.0000 18.0524 26.7704 -69.3694 -35.4289 -12.8839 141.0645 -0.2109 -7.3661 -14.3016 -0.3755 -3.9359 10.8963 -1.5433 -0.3459 -3.4413 0.9778 -0.6140 -7.2230 1.8966 -0.2875 -5.5311 18.8126 9.6912 -14.6345 -24.7120 15.5364 21.5081 -10.4050 6.1900 13.4774 -0.0000 -0.0000 0.0000 -111.1607 -38.9095 74.0415 144.4019 -45.2346 -104.7635 -0.0000 0.0000 -25.6627 45.7927 -11.4771 -11.5609 -7.1250 0.0000 -0.0000 12.6059 14.0169 -9.4123 -0.0000 -0.0000 0.0000 -130.0883 39.0181 -175.2876 -152.8611 38.3114 -110.4149 0.0000 -0.0000 -37.7740 -4.6468 -18.0220 1.4405 7.1250 -0.0000 -0.0000 22.0856 -46.7849 -1.0214
1.7418 2.5632 16.2015 113.3420 -3.4999 -72.1707 0.0000 0.0000 0.0000 -29.5134 -8.6586 -59.6732 14.1435 19.1570 72.6422 0.5136 3.1290 12.8288 0.0001 0.0783 0.2153 0.0000 0.0000 0.0000 18.0286 26.7627 -69.3603 -35.4306 -12.8818 141.0725 -0.2148 -7.3545 -14.3477 -0.3872 -3.9958 11.0648 -1.5957 -0.3484 -3.4543 0.9461 -0.6197 -7.2405 1.8932 -0.2889 -5.5422 19.1124 9.7349 -14.5280 -24.8218 15.5476 21.3476 -10.4981 6.2254 13.4364 0.0000 0.0000 0.0000 -112.0704 -39.5012 74.3480 144.4603 -45.1937 -104.8050 -0.0000 0.0000 -25.1379 44.7081 -10.8898 -10.5922 -7.1250 0.0000 -0.0000 12.0235 15.0559 -8.6839 0.0000 0.0000 0.0000 -129.9920 39.0355 -175.3982 -152.8887 38.2852 -110.4320 0.0000 -0.0000 -37.8324 -4.0617 -17.7852 1.2425 7.1250 -0.0000 -0.0000 22.5056 -46.4906 -0.8713
1.7374 2.5624 16.1986 113.4180 -3.4983 -72.1473 0.0000 0.0000 0.0000 -29.5609 -8.5791 -59.7302 14.1292 19.1528 72.5987 0.5074 3.3986 12.7236 0.0005 -0.1470 -0.4039 0.0000 0.0000 0.0000 18.0103 26.7565 -69.3503 -35.4291 -12.8837 141.0655 -0.2187 -7.3419 -14.3922 -0.3990 -4.0556 11.2332 -1.6355 -0.3592 -3.4654 0.9134 -0.6362 -7.2535 1.8817 -0.2962 -5.5492 19.4257 9.7788 -14.4249 -24.9533 15.5577 21.1656 -10.6026 6.2594 13.3920 -0.0000 0.0000 0.0000 -112.9286 -40.0553 74.6443 144.5036 -45.1634 -104.8357 -0.0000 0.0000 -24.4795 43.5917 -10.4671 -9.8124 -7.1250 0.0000 -0.0000 11.3724 15.8527 -7.9943 -0.0000 0.0000 0.0000 -129.8919 39.0328 -175.5307 -152.9235 38.2520 -110.4536 0.0000 -0.0000 -37.9029 -3.4794 -17.5520 1.0505 7.1250 -0.0000 -0.0000 22.9221 -46.2019 -0.7174
1.7328 2.5616 16.1958 113.4970 -3.5005 -72.1207 0.0000 0.0000 0.0000 -29.6083 -8.4977 -59.7913 14.1155 19.1487 72.5568 0.5000 3.6708 12.6076 0.0030 -0.3557 -0.9775 0.0000 0.0000 0.0000 17.9927 26.7558 -69.3449 -35.4247 -12.8890 141.0458 -0.2225 -7.3302 -14.4372 -0.4110 -4.1153 11.4012 -1.6715 -0.3738 -3.4794 0.8835 -0.6572 -7.2621 1.8710 -0.3059 -5.5495 19.6919 9.8159 -14.3506 -25.0343 15.5507 20.9859 -10.6766 6.2832 13.3378 0.0000 -0.0000 0.0000 -113.7611 -40.5739 74.9432 144.5237 -45.1493 -104.8499 -0.0000 0.0000 -23.7036 42.3996 -10.2421 -9.2220 -7.1250 0.0000 -0.0000 10.6212 16.3806 -7.3229 0.0000 -0.0000 0.0000 -129.7911 39.0078 -175.6627 -152.9568 38.2204 -110.4741 0.0000 -0.0000 -37.9788 -2.9192 -17.3289 0.8702 7.1250 -0.0000 -0.0000 23.3211 -45.9271 -0.5643
1.7281 2.5607 16.1933 113.5790 -3.5020 -72.0927 0.0000 0.0000 0.0000 -29.6621 -8.4130 -59.8510 14.1008 19.1443 72.5122 0.4918 3.9434 12.4881 0.0073 -0.5510 -1.5141 0.0000 0.0000 0.0000 17.9738 26.7632 -69.3457 -35.4176 -12.8975 141.0141 -0.2264 -7.3203 -14.4853 -0.4230 -4.1745 11.5680 -1.7104 -0.3937 -3.4941 0.8656 -0.6846 -7.2659 1.8744 -0.3182 -5.5439 19.8966 9.8481 -14.2924 -25.0904 15.5393 20.7901 -10.7252 6.3000 13.2697 -0.0000 -0.0000 0.0000 -114.5829 -41.0655 75.2448 144.5136 -45.1563 -104.8428 -0.0000 0.0000 -22.7969 41.1422 -10.2335 -8.8227 -7.1250 0.0000 -0.0000 9.7783 16.6226 -6.6712 -0.0000 -0.0000 0.0000 -129.7265 38.9489 -175.7917 -152.9843 38.1942 -110.4912 0.0000 -0.0000 -38.0427 -2.3936 -17.1005 0.7042 7.1250 -0.0000 -0.0000 23.6852 -45.6530 -0.4047
1.7235 2.5596 16.1913 113.6630 -3.5007 -72.0648 0.0000 0.0000 0.0000 -29.7252 -8.3229 -59.9054 14.0843 19.1394 72.4619 0.4834 4.2069 12.3720 0.0135 -0.7511 -2.0642 0.0000 0.0000 0.0000 17.9539 26.7766 -69.3482 -35.4112 -12.9052 140.9854 -0.2303 -7.3147 -14.5360 -0.4351 -4.2330 11.7332 -1.7598 -0.4197 -3.5068 0.8609 -0.7193 -7.2673 1.8975 -0.3330 -5.5364 20.0582 9.8826 -14.2537 -25.1393 15.5389 20.6025 -10.7601 6.3167 13.2077 -0.0000 -0.0000 0.0000 -115.3940 -41.5346 75.5501 144.4865 -45.1754 -104.8236 -0.0000 0.0000 -21.7638 39.8080 -10.3642 -8.5271 -7.1250 0.0000 -0.0000 8.8548 16.6892 -6.0117 -0.0000 -0.0000 0.0000 -129.7031 38.8565 -175.9190 -152.9997 38.1795 -110.5007 0.0000 -0.0000 -38.0945 -1.9058 -16.8916 0.5539 7.1250 -0.0000 -0.0000 24.0226 -45.4028 -0.2537
